<svg width="801" height="310" viewBox="0 0 801 310" fill="none" xmlns="http://www.w3.org/2000/svg">
<rect width="801" height="310" rx="8" fill="white"/>
<path d="M241.584 122.714C242.228 121.594 243.138 120.726 244.314 120.11C245.49 119.466 246.876 119.144 248.472 119.144C250.348 119.144 252.042 119.634 253.554 120.614C255.094 121.594 256.298 122.994 257.166 124.814C258.062 126.634 258.51 128.762 258.51 131.198C258.51 133.634 258.062 135.776 257.166 137.624C256.298 139.444 255.094 140.844 253.554 141.824C252.042 142.804 250.348 143.294 248.472 143.294C246.876 143.294 245.49 142.986 244.314 142.37C243.138 141.726 242.228 140.844 241.584 139.724V143H233.352V111.92H241.584V122.714ZM250.152 131.198C250.152 129.658 249.732 128.468 248.892 127.628C248.08 126.76 247.072 126.326 245.868 126.326C244.664 126.326 243.642 126.76 242.802 127.628C241.99 128.496 241.584 129.686 241.584 131.198C241.584 132.738 241.99 133.942 242.802 134.81C243.642 135.678 244.664 136.112 245.868 136.112C247.072 136.112 248.08 135.678 248.892 134.81C249.732 133.914 250.152 132.71 250.152 131.198ZM270.677 143.294C268.549 143.294 266.645 142.944 264.965 142.244C263.313 141.516 261.997 140.536 261.017 139.304C260.065 138.044 259.533 136.63 259.421 135.062H267.401C267.513 135.818 267.863 136.406 268.451 136.826C269.039 137.246 269.767 137.456 270.635 137.456C271.307 137.456 271.839 137.316 272.231 137.036C272.623 136.756 272.819 136.392 272.819 135.944C272.819 135.356 272.497 134.922 271.853 134.642C271.209 134.362 270.145 134.054 268.661 133.718C266.981 133.382 265.581 133.004 264.461 132.584C263.341 132.164 262.361 131.478 261.521 130.526C260.709 129.574 260.303 128.286 260.303 126.662C260.303 125.262 260.681 124.002 261.437 122.882C262.193 121.734 263.299 120.824 264.755 120.152C266.239 119.48 268.017 119.144 270.089 119.144C273.169 119.144 275.591 119.9 277.355 121.412C279.119 122.924 280.141 124.912 280.421 127.376H272.987C272.847 126.62 272.511 126.046 271.979 125.654C271.475 125.234 270.789 125.024 269.921 125.024C269.249 125.024 268.731 125.15 268.367 125.402C268.031 125.654 267.863 126.004 267.863 126.452C267.863 127.012 268.185 127.446 268.829 127.754C269.473 128.034 270.509 128.328 271.937 128.636C273.645 129 275.059 129.406 276.179 129.854C277.327 130.302 278.321 131.03 279.161 132.038C280.029 133.018 280.463 134.362 280.463 136.07C280.463 137.442 280.057 138.674 279.245 139.766C278.461 140.858 277.327 141.726 275.843 142.37C274.387 142.986 272.665 143.294 270.677 143.294ZM301.436 125.024V131.87H282.41V125.024H301.436ZM314.503 123.596C315.427 122.252 316.547 121.188 317.863 120.404C319.179 119.62 320.593 119.228 322.105 119.228V128.006H319.795C318.003 128.006 316.673 128.356 315.805 129.056C314.937 129.756 314.503 130.974 314.503 132.71V143H306.271V119.438H314.503V123.596ZM346.308 130.946C346.308 131.59 346.266 132.234 346.182 132.878H330.6C330.684 134.166 331.034 135.132 331.65 135.776C332.294 136.392 333.106 136.7 334.086 136.7C335.458 136.7 336.438 136.084 337.026 134.852H345.804C345.44 136.476 344.726 137.932 343.662 139.22C342.626 140.48 341.31 141.474 339.714 142.202C338.118 142.93 336.354 143.294 334.422 143.294C332.098 143.294 330.026 142.804 328.206 141.824C326.414 140.844 325 139.444 323.964 137.624C322.956 135.804 322.452 133.662 322.452 131.198C322.452 128.734 322.956 126.606 323.964 124.814C324.972 122.994 326.372 121.594 328.164 120.614C329.984 119.634 332.07 119.144 334.422 119.144C336.746 119.144 338.804 119.62 340.596 120.572C342.388 121.524 343.788 122.896 344.796 124.688C345.804 126.452 346.308 128.538 346.308 130.946ZM337.908 128.888C337.908 127.88 337.572 127.096 336.9 126.536C336.228 125.948 335.388 125.654 334.38 125.654C333.372 125.654 332.546 125.934 331.902 126.494C331.258 127.026 330.838 127.824 330.642 128.888H337.908ZM347.073 131.198C347.073 128.762 347.507 126.634 348.375 124.814C349.271 122.994 350.475 121.594 351.987 120.614C353.527 119.634 355.235 119.144 357.111 119.144C358.735 119.144 360.135 119.466 361.311 120.11C362.487 120.754 363.397 121.622 364.041 122.714V119.438H372.273V143H364.041V139.724C363.397 140.816 362.473 141.684 361.269 142.328C360.093 142.972 358.707 143.294 357.111 143.294C355.235 143.294 353.527 142.804 351.987 141.824C350.475 140.844 349.271 139.444 348.375 137.624C347.507 135.776 347.073 133.634 347.073 131.198ZM364.041 131.198C364.041 129.686 363.621 128.496 362.781 127.628C361.969 126.76 360.961 126.326 359.757 126.326C358.525 126.326 357.503 126.76 356.691 127.628C355.879 128.468 355.473 129.658 355.473 131.198C355.473 132.71 355.879 133.914 356.691 134.81C357.503 135.678 358.525 136.112 359.757 136.112C360.961 136.112 361.969 135.678 362.781 134.81C363.621 133.942 364.041 132.738 364.041 131.198ZM374.36 131.198C374.36 128.762 374.864 126.634 375.872 124.814C376.88 122.994 378.28 121.594 380.072 120.614C381.892 119.634 383.964 119.144 386.288 119.144C389.284 119.144 391.804 119.97 393.848 121.622C395.892 123.246 397.208 125.528 397.796 128.468H389.06C388.556 126.928 387.576 126.158 386.12 126.158C385.084 126.158 384.258 126.592 383.642 127.46C383.054 128.3 382.76 129.546 382.76 131.198C382.76 132.85 383.054 134.11 383.642 134.978C384.258 135.846 385.084 136.28 386.12 136.28C387.604 136.28 388.584 135.51 389.06 133.97H397.796C397.208 136.882 395.892 139.164 393.848 140.816C391.804 142.468 389.284 143.294 386.288 143.294C383.964 143.294 381.892 142.804 380.072 141.824C378.28 140.844 376.88 139.444 375.872 137.624C374.864 135.804 374.36 133.662 374.36 131.198ZM413.858 135.986V143H410.288C404.268 143 401.258 140.018 401.258 134.054V126.284H398.36V119.438H401.258V113.726H409.532V119.438H413.816V126.284H409.532V134.18C409.532 134.824 409.672 135.286 409.952 135.566C410.26 135.846 410.764 135.986 411.464 135.986H413.858ZM434.56 125.024V131.87H415.534V125.024H434.56ZM447.627 123.596C448.551 122.252 449.671 121.188 450.987 120.404C452.303 119.62 453.717 119.228 455.229 119.228V128.006H452.919C451.127 128.006 449.797 128.356 448.929 129.056C448.061 129.756 447.627 130.974 447.627 132.71V143H439.395V119.438H447.627V123.596ZM479.432 130.946C479.432 131.59 479.39 132.234 479.306 132.878H463.724C463.808 134.166 464.158 135.132 464.774 135.776C465.418 136.392 466.23 136.7 467.21 136.7C468.582 136.7 469.562 136.084 470.15 134.852H478.928C478.564 136.476 477.85 137.932 476.786 139.22C475.75 140.48 474.434 141.474 472.838 142.202C471.242 142.93 469.478 143.294 467.546 143.294C465.222 143.294 463.15 142.804 461.33 141.824C459.538 140.844 458.124 139.444 457.088 137.624C456.08 135.804 455.576 133.662 455.576 131.198C455.576 128.734 456.08 126.606 457.088 124.814C458.096 122.994 459.496 121.594 461.288 120.614C463.108 119.634 465.194 119.144 467.546 119.144C469.87 119.144 471.928 119.62 473.72 120.572C475.512 121.524 476.912 122.896 477.92 124.688C478.928 126.452 479.432 128.538 479.432 130.946ZM471.032 128.888C471.032 127.88 470.696 127.096 470.024 126.536C469.352 125.948 468.512 125.654 467.504 125.654C466.496 125.654 465.67 125.934 465.026 126.494C464.382 127.026 463.962 127.824 463.766 128.888H471.032ZM492.839 135.23L497.249 119.438H506.027L497.921 143H487.673L479.567 119.438H488.345L492.839 135.23ZM530.068 130.946C530.068 131.59 530.026 132.234 529.942 132.878H514.36C514.444 134.166 514.794 135.132 515.41 135.776C516.054 136.392 516.866 136.7 517.846 136.7C519.218 136.7 520.198 136.084 520.786 134.852H529.564C529.2 136.476 528.486 137.932 527.422 139.22C526.386 140.48 525.07 141.474 523.474 142.202C521.878 142.93 520.114 143.294 518.182 143.294C515.858 143.294 513.786 142.804 511.966 141.824C510.174 140.844 508.76 139.444 507.724 137.624C506.716 135.804 506.212 133.662 506.212 131.198C506.212 128.734 506.716 126.606 507.724 124.814C508.732 122.994 510.132 121.594 511.924 120.614C513.744 119.634 515.83 119.144 518.182 119.144C520.506 119.144 522.564 119.62 524.356 120.572C526.148 121.524 527.548 122.896 528.556 124.688C529.564 126.452 530.068 128.538 530.068 130.946ZM521.668 128.888C521.668 127.88 521.332 127.096 520.66 126.536C519.988 125.948 519.148 125.654 518.14 125.654C517.132 125.654 516.306 125.934 515.662 126.494C515.018 127.026 514.598 127.824 514.402 128.888H521.668ZM530.833 131.198C530.833 128.762 531.267 126.634 532.135 124.814C533.031 122.994 534.235 121.594 535.747 120.614C537.287 119.634 538.995 119.144 540.871 119.144C542.495 119.144 543.895 119.466 545.071 120.11C546.247 120.754 547.157 121.622 547.801 122.714V119.438H556.033V143H547.801V139.724C547.157 140.816 546.233 141.684 545.029 142.328C543.853 142.972 542.467 143.294 540.871 143.294C538.995 143.294 537.287 142.804 535.747 141.824C534.235 140.844 533.031 139.444 532.135 137.624C531.267 135.776 530.833 133.634 530.833 131.198ZM547.801 131.198C547.801 129.686 547.381 128.496 546.541 127.628C545.729 126.76 544.721 126.326 543.517 126.326C542.285 126.326 541.263 126.76 540.451 127.628C539.639 128.468 539.233 129.658 539.233 131.198C539.233 132.71 539.639 133.914 540.451 134.81C541.263 135.678 542.285 136.112 543.517 136.112C544.721 136.112 545.729 135.678 546.541 134.81C547.381 133.942 547.801 132.738 547.801 131.198ZM567.696 111.92V143H559.464V111.92H567.696Z" fill="#DD1350"/>
<path d="M159.728 201L154.8 192.296H152.688V201H148.208V178.664H156.592C158.32 178.664 159.792 178.973 161.008 179.592C162.224 180.189 163.131 181.011 163.728 182.056C164.347 183.08 164.656 184.232 164.656 185.512C164.656 186.984 164.229 188.317 163.376 189.512C162.523 190.685 161.253 191.496 159.568 191.944L164.912 201H159.728ZM152.688 188.936H156.432C157.648 188.936 158.555 188.648 159.152 188.072C159.749 187.475 160.048 186.653 160.048 185.608C160.048 184.584 159.749 183.795 159.152 183.24C158.555 182.664 157.648 182.376 156.432 182.376H152.688V188.936ZM183.908 191.752C183.908 192.392 183.865 192.968 183.78 193.48H170.82C170.927 194.76 171.375 195.763 172.164 196.488C172.953 197.213 173.924 197.576 175.076 197.576C176.74 197.576 177.924 196.861 178.628 195.432H183.46C182.948 197.139 181.967 198.547 180.516 199.656C179.065 200.744 177.284 201.288 175.172 201.288C173.465 201.288 171.929 200.915 170.564 200.168C169.22 199.4 168.164 198.323 167.396 196.936C166.649 195.549 166.276 193.949 166.276 192.136C166.276 190.301 166.649 188.691 167.396 187.304C168.143 185.917 169.188 184.851 170.532 184.104C171.876 183.357 173.423 182.984 175.172 182.984C176.857 182.984 178.361 183.347 179.684 184.072C181.028 184.797 182.063 185.832 182.788 187.176C183.535 188.499 183.908 190.024 183.908 191.752ZM179.268 190.472C179.247 189.32 178.831 188.403 178.02 187.72C177.209 187.016 176.217 186.664 175.044 186.664C173.935 186.664 172.996 187.005 172.228 187.688C171.481 188.349 171.023 189.277 170.852 190.472H179.268ZM193.61 201.224C192.053 201.224 190.645 200.957 189.386 200.424C188.149 199.891 187.167 199.123 186.442 198.12C185.717 197.117 185.343 195.933 185.322 194.568H190.122C190.186 195.485 190.506 196.211 191.082 196.744C191.679 197.277 192.49 197.544 193.514 197.544C194.559 197.544 195.381 197.299 195.978 196.808C196.575 196.296 196.874 195.635 196.874 194.824C196.874 194.163 196.671 193.619 196.266 193.192C195.861 192.765 195.349 192.435 194.73 192.2C194.133 191.944 193.301 191.667 192.234 191.368C190.783 190.941 189.599 190.525 188.682 190.12C187.786 189.693 187.007 189.064 186.346 188.232C185.706 187.379 185.386 186.248 185.386 184.84C185.386 183.517 185.717 182.365 186.378 181.384C187.039 180.403 187.967 179.656 189.162 179.144C190.357 178.611 191.722 178.344 193.258 178.344C195.562 178.344 197.429 178.909 198.858 180.04C200.309 181.149 201.109 182.707 201.258 184.712H196.33C196.287 183.944 195.957 183.315 195.338 182.824C194.741 182.312 193.941 182.056 192.938 182.056C192.063 182.056 191.359 182.28 190.826 182.728C190.314 183.176 190.058 183.827 190.058 184.68C190.058 185.277 190.25 185.779 190.634 186.184C191.039 186.568 191.53 186.888 192.106 187.144C192.703 187.379 193.535 187.656 194.602 187.976C196.053 188.403 197.237 188.829 198.154 189.256C199.071 189.683 199.861 190.323 200.522 191.176C201.183 192.029 201.514 193.149 201.514 194.536C201.514 195.731 201.205 196.84 200.586 197.864C199.967 198.888 199.061 199.709 197.866 200.328C196.671 200.925 195.253 201.224 193.61 201.224ZM202.966 192.136C202.966 190.301 203.339 188.701 204.086 187.336C204.833 185.949 205.867 184.883 207.19 184.136C208.513 183.368 210.027 182.984 211.734 182.984C213.931 182.984 215.745 183.539 217.174 184.648C218.625 185.736 219.595 187.272 220.086 189.256H215.254C214.998 188.488 214.561 187.891 213.942 187.464C213.345 187.016 212.598 186.792 211.702 186.792C210.422 186.792 209.409 187.261 208.662 188.2C207.915 189.117 207.542 190.429 207.542 192.136C207.542 193.821 207.915 195.133 208.662 196.072C209.409 196.989 210.422 197.448 211.702 197.448C213.515 197.448 214.699 196.637 215.254 195.016H220.086C219.595 196.936 218.625 198.461 217.174 199.592C215.723 200.723 213.91 201.288 211.734 201.288C210.027 201.288 208.513 200.915 207.19 200.168C205.867 199.4 204.833 198.333 204.086 196.968C203.339 195.581 202.966 193.971 202.966 192.136ZM226.568 186.024C227.144 185.085 227.891 184.349 228.808 183.816C229.747 183.283 230.813 183.016 232.008 183.016V187.72H230.824C229.416 187.72 228.349 188.051 227.624 188.712C226.92 189.373 226.568 190.525 226.568 192.168V201H222.088V183.272H226.568V186.024ZM236.017 181.16C235.228 181.16 234.567 180.915 234.033 180.424C233.521 179.912 233.265 179.283 233.265 178.536C233.265 177.789 233.521 177.171 234.033 176.68C234.567 176.168 235.228 175.912 236.017 175.912C236.807 175.912 237.457 176.168 237.969 176.68C238.503 177.171 238.769 177.789 238.769 178.536C238.769 179.283 238.503 179.912 237.969 180.424C237.457 180.915 236.807 181.16 236.017 181.16ZM238.225 183.272V201H233.745V183.272H238.225ZM245.852 185.832C246.428 185.021 247.217 184.349 248.22 183.816C249.244 183.261 250.406 182.984 251.708 182.984C253.222 182.984 254.588 183.357 255.804 184.104C257.041 184.851 258.012 185.917 258.716 187.304C259.441 188.669 259.804 190.259 259.804 192.072C259.804 193.885 259.441 195.496 258.716 196.904C258.012 198.291 257.041 199.368 255.804 200.136C254.588 200.904 253.222 201.288 251.708 201.288C250.406 201.288 249.254 201.021 248.252 200.488C247.27 199.955 246.47 199.283 245.852 198.472V209.448H241.372V183.272H245.852V185.832ZM255.228 192.072C255.228 191.005 255.004 190.088 254.556 189.32C254.129 188.531 253.553 187.933 252.828 187.528C252.124 187.123 251.356 186.92 250.524 186.92C249.713 186.92 248.945 187.133 248.22 187.56C247.516 187.965 246.94 188.563 246.492 189.352C246.065 190.141 245.852 191.069 245.852 192.136C245.852 193.203 246.065 194.131 246.492 194.92C246.94 195.709 247.516 196.317 248.22 196.744C248.945 197.149 249.713 197.352 250.524 197.352C251.356 197.352 252.124 197.139 252.828 196.712C253.553 196.285 254.129 195.677 254.556 194.888C255.004 194.099 255.228 193.16 255.228 192.072ZM266.995 186.952V195.528C266.995 196.125 267.134 196.563 267.411 196.84C267.71 197.096 268.201 197.224 268.883 197.224H270.963V201H268.147C264.371 201 262.483 199.165 262.483 195.496V186.952H260.371V183.272H262.483V178.888H266.995V183.272H270.963V186.952H266.995ZM283.73 185.864C284.306 185.011 285.096 184.317 286.098 183.784C287.122 183.251 288.285 182.984 289.586 182.984C291.101 182.984 292.466 183.357 293.682 184.104C294.92 184.851 295.89 185.917 296.594 187.304C297.32 188.669 297.682 190.259 297.682 192.072C297.682 193.885 297.32 195.496 296.594 196.904C295.89 198.291 294.92 199.368 293.682 200.136C292.466 200.904 291.101 201.288 289.586 201.288C288.264 201.288 287.101 201.032 286.098 200.52C285.117 199.987 284.328 199.304 283.73 198.472V201H279.25V177.32H283.73V185.864ZM293.106 192.072C293.106 191.005 292.882 190.088 292.434 189.32C292.008 188.531 291.432 187.933 290.706 187.528C290.002 187.123 289.234 186.92 288.402 186.92C287.592 186.92 286.824 187.133 286.098 187.56C285.394 187.965 284.818 188.563 284.37 189.352C283.944 190.141 283.73 191.069 283.73 192.136C283.73 193.203 283.944 194.131 284.37 194.92C284.818 195.709 285.394 196.317 286.098 196.744C286.824 197.149 287.592 197.352 288.402 197.352C289.234 197.352 290.002 197.139 290.706 196.712C291.432 196.285 292.008 195.677 292.434 194.888C292.882 194.099 293.106 193.16 293.106 192.072ZM301.93 181.16C301.141 181.16 300.479 180.915 299.946 180.424C299.434 179.912 299.178 179.283 299.178 178.536C299.178 177.789 299.434 177.171 299.946 176.68C300.479 176.168 301.141 175.912 301.93 175.912C302.719 175.912 303.37 176.168 303.882 176.68C304.415 177.171 304.682 177.789 304.682 178.536C304.682 179.283 304.415 179.912 303.882 180.424C303.37 180.915 302.719 181.16 301.93 181.16ZM304.138 183.272V201H299.658V183.272H304.138ZM317.108 183.016C319.22 183.016 320.927 183.688 322.228 185.032C323.53 186.355 324.18 188.211 324.18 190.6V201H319.7V191.208C319.7 189.8 319.348 188.723 318.644 187.976C317.94 187.208 316.98 186.824 315.764 186.824C314.527 186.824 313.546 187.208 312.82 187.976C312.116 188.723 311.764 189.8 311.764 191.208V201H307.284V183.272H311.764V185.48C312.362 184.712 313.119 184.115 314.036 183.688C314.975 183.24 315.999 183.016 317.108 183.016ZM326.008 192.072C326.008 190.28 326.36 188.691 327.064 187.304C327.79 185.917 328.771 184.851 330.008 184.104C331.246 183.357 332.622 182.984 334.136 182.984C335.288 182.984 336.387 183.24 337.432 183.752C338.478 184.243 339.31 184.904 339.929 185.736V177.32H344.472V201H339.929V198.376C339.374 199.251 338.595 199.955 337.592 200.488C336.59 201.021 335.427 201.288 334.104 201.288C332.611 201.288 331.246 200.904 330.008 200.136C328.771 199.368 327.79 198.291 327.064 196.904C326.36 195.496 326.008 193.885 326.008 192.072ZM339.96 192.136C339.96 191.048 339.747 190.12 339.321 189.352C338.894 188.563 338.318 187.965 337.592 187.56C336.867 187.133 336.089 186.92 335.257 186.92C334.425 186.92 333.656 187.123 332.952 187.528C332.248 187.933 331.672 188.531 331.224 189.32C330.798 190.088 330.584 191.005 330.584 192.072C330.584 193.139 330.798 194.077 331.224 194.888C331.672 195.677 332.248 196.285 332.952 196.712C333.678 197.139 334.446 197.352 335.257 197.352C336.089 197.352 336.867 197.149 337.592 196.744C338.318 196.317 338.894 195.72 339.321 194.952C339.747 194.163 339.96 193.224 339.96 192.136ZM349.84 181.16C349.051 181.16 348.389 180.915 347.856 180.424C347.344 179.912 347.088 179.283 347.088 178.536C347.088 177.789 347.344 177.171 347.856 176.68C348.389 176.168 349.051 175.912 349.84 175.912C350.629 175.912 351.28 176.168 351.792 176.68C352.325 177.171 352.592 177.789 352.592 178.536C352.592 179.283 352.325 179.912 351.792 180.424C351.28 180.915 350.629 181.16 349.84 181.16ZM352.048 183.272V201H347.568V183.272H352.048ZM365.018 183.016C367.13 183.016 368.837 183.688 370.138 185.032C371.44 186.355 372.09 188.211 372.09 190.6V201H367.61V191.208C367.61 189.8 367.258 188.723 366.554 187.976C365.85 187.208 364.89 186.824 363.674 186.824C362.437 186.824 361.456 187.208 360.73 187.976C360.026 188.723 359.674 189.8 359.674 191.208V201H355.194V183.272H359.674V185.48C360.272 184.712 361.029 184.115 361.946 183.688C362.885 183.24 363.909 183.016 365.018 183.016ZM382.015 182.984C383.337 182.984 384.5 183.251 385.503 183.784C386.505 184.296 387.295 184.968 387.871 185.8V183.272H392.383V201.128C392.383 202.771 392.052 204.232 391.391 205.512C390.729 206.813 389.737 207.837 388.415 208.584C387.092 209.352 385.492 209.736 383.615 209.736C381.097 209.736 379.028 209.149 377.407 207.976C375.807 206.803 374.9 205.203 374.687 203.176H379.135C379.369 203.987 379.871 204.627 380.639 205.096C381.428 205.587 382.377 205.832 383.487 205.832C384.788 205.832 385.844 205.437 386.655 204.648C387.465 203.88 387.871 202.707 387.871 201.128V198.376C387.295 199.208 386.495 199.901 385.471 200.456C384.468 201.011 383.316 201.288 382.015 201.288C380.521 201.288 379.156 200.904 377.919 200.136C376.681 199.368 375.7 198.291 374.975 196.904C374.271 195.496 373.919 193.885 373.919 192.072C373.919 190.28 374.271 188.691 374.975 187.304C375.7 185.917 376.671 184.851 377.887 184.104C379.124 183.357 380.5 182.984 382.015 182.984ZM387.871 192.136C387.871 191.048 387.657 190.12 387.231 189.352C386.804 188.563 386.228 187.965 385.503 187.56C384.777 187.133 383.999 186.92 383.167 186.92C382.335 186.92 381.567 187.123 380.863 187.528C380.159 187.933 379.583 188.531 379.135 189.32C378.708 190.088 378.495 191.005 378.495 192.072C378.495 193.139 378.708 194.077 379.135 194.888C379.583 195.677 380.159 196.285 380.863 196.712C381.588 197.139 382.356 197.352 383.167 197.352C383.999 197.352 384.777 197.149 385.503 196.744C386.228 196.317 386.804 195.72 387.231 194.952C387.657 194.163 387.871 193.224 387.871 192.136ZM402.262 201.288C400.811 201.288 399.51 201.032 398.358 200.52C397.206 199.987 396.289 199.272 395.606 198.376C394.945 197.48 394.582 196.488 394.518 195.4H399.03C399.115 196.083 399.446 196.648 400.022 197.096C400.619 197.544 401.355 197.768 402.23 197.768C403.083 197.768 403.745 197.597 404.214 197.256C404.705 196.915 404.95 196.477 404.95 195.944C404.95 195.368 404.651 194.941 404.054 194.664C403.478 194.365 402.55 194.045 401.27 193.704C399.947 193.384 398.859 193.053 398.006 192.712C397.174 192.371 396.449 191.848 395.83 191.144C395.233 190.44 394.934 189.491 394.934 188.296C394.934 187.315 395.211 186.419 395.766 185.608C396.342 184.797 397.153 184.157 398.198 183.688C399.265 183.219 400.513 182.984 401.942 182.984C404.054 182.984 405.739 183.517 406.998 184.584C408.257 185.629 408.95 187.048 409.078 188.84H404.79C404.726 188.136 404.427 187.581 403.894 187.176C403.382 186.749 402.689 186.536 401.814 186.536C401.003 186.536 400.374 186.685 399.926 186.984C399.499 187.283 399.286 187.699 399.286 188.232C399.286 188.829 399.585 189.288 400.182 189.608C400.779 189.907 401.707 190.216 402.966 190.536C404.246 190.856 405.302 191.187 406.134 191.528C406.966 191.869 407.681 192.403 408.278 193.128C408.897 193.832 409.217 194.771 409.238 195.944C409.238 196.968 408.95 197.885 408.374 198.696C407.819 199.507 407.009 200.147 405.942 200.616C404.897 201.064 403.67 201.288 402.262 201.288ZM426.108 186.952H423.004V201H418.46V186.952H416.444V183.272H418.46V182.376C418.46 180.2 419.079 178.6 420.316 177.576C421.554 176.552 423.42 176.072 425.916 176.136V179.912C424.828 179.891 424.071 180.072 423.644 180.456C423.218 180.84 423.004 181.533 423.004 182.536V183.272H426.108V186.952ZM435.604 201.288C433.897 201.288 432.361 200.915 430.996 200.168C429.63 199.4 428.553 198.323 427.764 196.936C426.996 195.549 426.612 193.949 426.612 192.136C426.612 190.323 427.006 188.723 427.796 187.336C428.606 185.949 429.705 184.883 431.092 184.136C432.478 183.368 434.025 182.984 435.732 182.984C437.438 182.984 438.985 183.368 440.372 184.136C441.758 184.883 442.846 185.949 443.636 187.336C444.446 188.723 444.852 190.323 444.852 192.136C444.852 193.949 444.436 195.549 443.604 196.936C442.793 198.323 441.684 199.4 440.276 200.168C438.889 200.915 437.332 201.288 435.604 201.288ZM435.604 197.384C436.414 197.384 437.172 197.192 437.876 196.808C438.601 196.403 439.177 195.805 439.604 195.016C440.03 194.227 440.244 193.267 440.244 192.136C440.244 190.451 439.796 189.16 438.9 188.264C438.025 187.347 436.948 186.888 435.668 186.888C434.388 186.888 433.31 187.347 432.436 188.264C431.582 189.16 431.156 190.451 431.156 192.136C431.156 193.821 431.572 195.123 432.404 196.04C433.257 196.936 434.324 197.384 435.604 197.384ZM451.338 186.024C451.914 185.085 452.661 184.349 453.578 183.816C454.517 183.283 455.583 183.016 456.778 183.016V187.72H455.594C454.186 187.72 453.119 188.051 452.394 188.712C451.69 189.373 451.338 190.525 451.338 192.168V201H446.858V183.272H451.338V186.024ZM469.34 186.024C469.916 185.085 470.663 184.349 471.58 183.816C472.519 183.283 473.586 183.016 474.78 183.016V187.72H473.596C472.188 187.72 471.122 188.051 470.396 188.712C469.692 189.373 469.34 190.525 469.34 192.168V201H464.86V183.272H469.34V186.024ZM492.998 191.752C492.998 192.392 492.955 192.968 492.87 193.48H479.91C480.017 194.76 480.465 195.763 481.254 196.488C482.043 197.213 483.014 197.576 484.166 197.576C485.83 197.576 487.014 196.861 487.718 195.432H492.55C492.038 197.139 491.057 198.547 489.606 199.656C488.155 200.744 486.374 201.288 484.262 201.288C482.555 201.288 481.019 200.915 479.654 200.168C478.31 199.4 477.254 198.323 476.486 196.936C475.739 195.549 475.366 193.949 475.366 192.136C475.366 190.301 475.739 188.691 476.486 187.304C477.233 185.917 478.278 184.851 479.622 184.104C480.966 183.357 482.513 182.984 484.262 182.984C485.947 182.984 487.451 183.347 488.774 184.072C490.118 184.797 491.153 185.832 491.878 187.176C492.625 188.499 492.998 190.024 492.998 191.752ZM488.358 190.472C488.337 189.32 487.921 188.403 487.11 187.72C486.299 187.016 485.307 186.664 484.134 186.664C483.025 186.664 482.086 187.005 481.318 187.688C480.571 188.349 480.113 189.277 479.942 190.472H488.358ZM493.836 192.072C493.836 190.28 494.188 188.691 494.892 187.304C495.617 185.917 496.588 184.851 497.804 184.104C499.041 183.357 500.417 182.984 501.932 182.984C503.255 182.984 504.407 183.251 505.388 183.784C506.391 184.317 507.191 184.989 507.788 185.8V183.272H512.3V201H507.788V198.408C507.212 199.24 506.412 199.933 505.388 200.488C504.385 201.021 503.223 201.288 501.9 201.288C500.407 201.288 499.041 200.904 497.804 200.136C496.588 199.368 495.617 198.291 494.892 196.904C494.188 195.496 493.836 193.885 493.836 192.072ZM507.788 192.136C507.788 191.048 507.575 190.12 507.148 189.352C506.721 188.563 506.145 187.965 505.42 187.56C504.695 187.133 503.916 186.92 503.084 186.92C502.252 186.92 501.484 187.123 500.78 187.528C500.076 187.933 499.5 188.531 499.052 189.32C498.625 190.088 498.412 191.005 498.412 192.072C498.412 193.139 498.625 194.077 499.052 194.888C499.5 195.677 500.076 196.285 500.78 196.712C501.505 197.139 502.273 197.352 503.084 197.352C503.916 197.352 504.695 197.149 505.42 196.744C506.145 196.317 506.721 195.72 507.148 194.952C507.575 194.163 507.788 193.224 507.788 192.136ZM514.243 192.136C514.243 190.301 514.617 188.701 515.364 187.336C516.11 185.949 517.145 184.883 518.468 184.136C519.79 183.368 521.305 182.984 523.012 182.984C525.209 182.984 527.022 183.539 528.452 184.648C529.902 185.736 530.873 187.272 531.364 189.256H526.532C526.276 188.488 525.838 187.891 525.22 187.464C524.622 187.016 523.876 186.792 522.98 186.792C521.7 186.792 520.686 187.261 519.94 188.2C519.193 189.117 518.82 190.429 518.82 192.136C518.82 193.821 519.193 195.133 519.94 196.072C520.686 196.989 521.7 197.448 522.98 197.448C524.793 197.448 525.977 196.637 526.532 195.016H531.364C530.873 196.936 529.902 198.461 528.452 199.592C527.001 200.723 525.188 201.288 523.012 201.288C521.305 201.288 519.79 200.915 518.468 200.168C517.145 199.4 516.11 198.333 515.364 196.968C514.617 195.581 514.243 193.971 514.243 192.136ZM538.582 186.952V195.528C538.582 196.125 538.72 196.563 538.998 196.84C539.296 197.096 539.787 197.224 540.47 197.224H542.55V201H539.734C535.958 201 534.07 199.165 534.07 195.496V186.952H531.958V183.272H534.07V178.888H538.582V183.272H542.55V186.952H538.582ZM558.124 187.688V191.464H544.556V187.688H558.124ZM566.348 186.024C566.924 185.085 567.671 184.349 568.588 183.816C569.527 183.283 570.593 183.016 571.788 183.016V187.72H570.604C569.196 187.72 568.129 188.051 567.404 188.712C566.7 189.373 566.348 190.525 566.348 192.168V201H561.868V183.272H566.348V186.024ZM590.006 191.752C590.006 192.392 589.963 192.968 589.878 193.48H576.918C577.024 194.76 577.472 195.763 578.262 196.488C579.051 197.213 580.022 197.576 581.174 197.576C582.838 197.576 584.022 196.861 584.726 195.432H589.558C589.046 197.139 588.064 198.547 586.614 199.656C585.163 200.744 583.382 201.288 581.27 201.288C579.563 201.288 578.027 200.915 576.662 200.168C575.318 199.4 574.262 198.323 573.494 196.936C572.747 195.549 572.374 193.949 572.374 192.136C572.374 190.301 572.747 188.691 573.494 187.304C574.24 185.917 575.286 184.851 576.63 184.104C577.974 183.357 579.52 182.984 581.27 182.984C582.955 182.984 584.459 183.347 585.782 184.072C587.126 184.797 588.16 185.832 588.886 187.176C589.632 188.499 590.006 190.024 590.006 191.752ZM585.366 190.472C585.344 189.32 584.928 188.403 584.118 187.72C583.307 187.016 582.315 186.664 581.142 186.664C580.032 186.664 579.094 187.005 578.326 187.688C577.579 188.349 577.12 189.277 576.95 190.472H585.366ZM599.388 196.872L603.868 183.272H608.636L602.076 201H596.636L590.108 183.272H594.908L599.388 196.872ZM626.352 191.752C626.352 192.392 626.309 192.968 626.224 193.48H613.264C613.37 194.76 613.818 195.763 614.608 196.488C615.397 197.213 616.368 197.576 617.52 197.576C619.184 197.576 620.368 196.861 621.072 195.432H625.904C625.392 197.139 624.41 198.547 622.96 199.656C621.509 200.744 619.728 201.288 617.616 201.288C615.909 201.288 614.373 200.915 613.008 200.168C611.664 199.4 610.608 198.323 609.84 196.936C609.093 195.549 608.72 193.949 608.72 192.136C608.72 190.301 609.093 188.691 609.84 187.304C610.586 185.917 611.632 184.851 612.976 184.104C614.32 183.357 615.866 182.984 617.616 182.984C619.301 182.984 620.805 183.347 622.128 184.072C623.472 184.797 624.506 185.832 625.232 187.176C625.978 188.499 626.352 190.024 626.352 191.752ZM621.712 190.472C621.69 189.32 621.274 188.403 620.464 187.72C619.653 187.016 618.661 186.664 617.488 186.664C616.378 186.664 615.44 187.005 614.672 187.688C613.925 188.349 613.466 189.277 613.296 190.472H621.712ZM627.19 192.072C627.19 190.28 627.542 188.691 628.246 187.304C628.971 185.917 629.942 184.851 631.158 184.104C632.395 183.357 633.771 182.984 635.286 182.984C636.608 182.984 637.76 183.251 638.742 183.784C639.744 184.317 640.544 184.989 641.142 185.8V183.272H645.654V201H641.142V198.408C640.566 199.24 639.766 199.933 638.742 200.488C637.739 201.021 636.576 201.288 635.254 201.288C633.76 201.288 632.395 200.904 631.158 200.136C629.942 199.368 628.971 198.291 628.246 196.904C627.542 195.496 627.19 193.885 627.19 192.072ZM641.142 192.136C641.142 191.048 640.928 190.12 640.502 189.352C640.075 188.563 639.499 187.965 638.774 187.56C638.048 187.133 637.27 186.92 636.438 186.92C635.606 186.92 634.838 187.123 634.134 187.528C633.43 187.933 632.854 188.531 632.406 189.32C631.979 190.088 631.766 191.005 631.766 192.072C631.766 193.139 631.979 194.077 632.406 194.888C632.854 195.677 633.43 196.285 634.134 196.712C634.859 197.139 635.627 197.352 636.438 197.352C637.27 197.352 638.048 197.149 638.774 196.744C639.499 196.317 640.075 195.72 640.502 194.952C640.928 194.163 641.142 193.224 641.142 192.136ZM653.229 177.32V201H648.749V177.32H653.229Z" fill="#0E0E0E"/>
</svg>
