<svg width="712" height="165" viewBox="0 0 712 165" fill="none" xmlns="http://www.w3.org/2000/svg">
<path d="M95.776 44.512C96.928 42.64 98.584 41.128 100.744 39.976C102.904 38.824 105.376 38.248 108.16 38.248C111.472 38.248 114.472 39.088 117.16 40.768C119.848 42.448 121.96 44.848 123.496 47.968C125.08 51.088 125.872 54.712 125.872 58.84C125.872 62.968 125.08 66.616 123.496 69.784C121.96 72.904 119.848 75.328 117.16 77.056C114.472 78.736 111.472 79.576 108.16 79.576C105.328 79.576 102.856 79.024 100.744 77.92C98.632 76.768 96.976 75.256 95.776 73.384V79H83.464V25.72H95.776V44.512ZM113.344 58.84C113.344 55.768 112.48 53.368 110.752 51.64C109.072 49.864 106.984 48.976 104.488 48.976C102.04 48.976 99.952 49.864 98.224 51.64C96.544 53.416 95.704 55.84 95.704 58.912C95.704 61.984 96.544 64.408 98.224 66.184C99.952 67.96 102.04 68.848 104.488 68.848C106.936 68.848 109.024 67.96 110.752 66.184C112.48 64.36 113.344 61.912 113.344 58.84ZM145.075 79.576C141.571 79.576 138.451 78.976 135.715 77.776C132.979 76.576 130.819 74.944 129.235 72.88C127.651 70.768 126.763 68.416 126.571 65.824H138.739C138.883 67.216 139.531 68.344 140.683 69.208C141.835 70.072 143.251 70.504 144.931 70.504C146.467 70.504 147.643 70.216 148.459 69.64C149.323 69.016 149.755 68.224 149.755 67.264C149.755 66.112 149.155 65.272 147.955 64.744C146.755 64.168 144.811 63.544 142.123 62.872C139.243 62.2 136.843 61.504 134.923 60.784C133.003 60.016 131.347 58.84 129.955 57.256C128.563 55.624 127.867 53.44 127.867 50.704C127.867 48.4 128.491 46.312 129.739 44.44C131.035 42.52 132.907 41.008 135.355 39.904C137.851 38.8 140.803 38.248 144.211 38.248C149.251 38.248 153.211 39.496 156.091 41.992C159.019 44.488 160.699 47.8 161.131 51.928H149.755C149.563 50.536 148.939 49.432 147.883 48.616C146.875 47.8 145.531 47.392 143.851 47.392C142.411 47.392 141.307 47.68 140.539 48.256C139.771 48.784 139.387 49.528 139.387 50.488C139.387 51.64 139.987 52.504 141.187 53.08C142.435 53.656 144.355 54.232 146.947 54.808C149.923 55.576 152.347 56.344 154.219 57.112C156.091 57.832 157.723 59.032 159.115 60.712C160.555 62.344 161.299 64.552 161.347 67.336C161.347 69.688 160.675 71.8 159.331 73.672C158.035 75.496 156.139 76.936 153.643 77.992C151.195 79.048 148.339 79.576 145.075 79.576ZM196.24 48.616V58.84H164.56V48.616H196.24ZM215.757 45.52C217.197 43.312 218.997 41.584 221.157 40.336C223.317 39.04 225.717 38.392 228.357 38.392V51.424H224.973C221.901 51.424 219.597 52.096 218.061 53.44C216.525 54.736 215.757 57.04 215.757 60.352V79H203.445V38.824H215.757V45.52ZM268.514 58.264C268.514 59.416 268.442 60.616 268.298 61.864H240.434C240.626 64.36 241.418 66.28 242.81 67.624C244.25 68.92 246.002 69.568 248.066 69.568C251.138 69.568 253.274 68.272 254.474 65.68H267.578C266.906 68.32 265.682 70.696 263.906 72.808C262.178 74.92 259.994 76.576 257.354 77.776C254.714 78.976 251.762 79.576 248.498 79.576C244.562 79.576 241.058 78.736 237.986 77.056C234.914 75.376 232.514 72.976 230.786 69.856C229.058 66.736 228.194 63.088 228.194 58.912C228.194 54.736 229.034 51.088 230.714 47.968C232.442 44.848 234.842 42.448 237.914 40.768C240.986 39.088 244.514 38.248 248.498 38.248C252.386 38.248 255.842 39.064 258.866 40.696C261.89 42.328 264.242 44.656 265.922 47.68C267.65 50.704 268.514 54.232 268.514 58.264ZM255.914 55.024C255.914 52.912 255.194 51.232 253.754 49.984C252.314 48.736 250.514 48.112 248.354 48.112C246.29 48.112 244.538 48.712 243.098 49.912C241.706 51.112 240.842 52.816 240.506 55.024H255.914ZM268.961 58.84C268.961 54.712 269.729 51.088 271.265 47.968C272.849 44.848 274.985 42.448 277.673 40.768C280.361 39.088 283.361 38.248 286.673 38.248C289.505 38.248 291.977 38.824 294.089 39.976C296.249 41.128 297.905 42.64 299.057 44.512V38.824H311.369V79H299.057V73.312C297.857 75.184 296.177 76.696 294.017 77.848C291.905 79 289.433 79.576 286.601 79.576C283.337 79.576 280.361 78.736 277.673 77.056C274.985 75.328 272.849 72.904 271.265 69.784C269.729 66.616 268.961 62.968 268.961 58.84ZM299.057 58.912C299.057 55.84 298.193 53.416 296.465 51.64C294.785 49.864 292.721 48.976 290.273 48.976C287.825 48.976 285.737 49.864 284.009 51.64C282.329 53.368 281.489 55.768 281.489 58.84C281.489 61.912 282.329 64.36 284.009 66.184C285.737 67.96 287.825 68.848 290.273 68.848C292.721 68.848 294.785 67.96 296.465 66.184C298.193 64.408 299.057 61.984 299.057 58.912ZM314.228 58.912C314.228 54.736 315.068 51.088 316.748 47.968C318.476 44.848 320.852 42.448 323.876 40.768C326.948 39.088 330.452 38.248 334.388 38.248C339.428 38.248 343.628 39.568 346.988 42.208C350.396 44.848 352.628 48.568 353.684 53.368H340.58C339.476 50.296 337.34 48.76 334.172 48.76C331.916 48.76 330.116 49.648 328.772 51.424C327.428 53.152 326.756 55.648 326.756 58.912C326.756 62.176 327.428 64.696 328.772 66.472C330.116 68.2 331.916 69.064 334.172 69.064C337.34 69.064 339.476 67.528 340.58 64.456H353.684C352.628 69.16 350.396 72.856 346.988 75.544C343.58 78.232 339.38 79.576 334.388 79.576C330.452 79.576 326.948 78.736 323.876 77.056C320.852 75.376 318.476 72.976 316.748 69.856C315.068 66.736 314.228 63.088 314.228 58.912ZM379.062 68.56V79H372.798C368.334 79 364.854 77.92 362.358 75.76C359.862 73.552 358.614 69.976 358.614 65.032V49.048H353.718V38.824H358.614V29.032H370.926V38.824H378.99V49.048H370.926V65.176C370.926 66.376 371.214 67.24 371.79 67.768C372.366 68.296 373.326 68.56 374.67 68.56H379.062ZM413.28 48.616V58.84H381.6V48.616H413.28ZM432.798 45.52C434.238 43.312 436.038 41.584 438.198 40.336C440.358 39.04 442.758 38.392 445.398 38.392V51.424H442.014C438.942 51.424 436.638 52.096 435.102 53.44C433.566 54.736 432.798 57.04 432.798 60.352V79H420.486V38.824H432.798V45.52ZM485.555 58.264C485.555 59.416 485.483 60.616 485.339 61.864H457.475C457.667 64.36 458.459 66.28 459.851 67.624C461.291 68.92 463.043 69.568 465.107 69.568C468.179 69.568 470.315 68.272 471.515 65.68H484.619C483.947 68.32 482.723 70.696 480.947 72.808C479.219 74.92 477.035 76.576 474.395 77.776C471.755 78.976 468.803 79.576 465.539 79.576C461.603 79.576 458.099 78.736 455.027 77.056C451.955 75.376 449.555 72.976 447.827 69.856C446.099 66.736 445.235 63.088 445.235 58.912C445.235 54.736 446.075 51.088 447.755 47.968C449.483 44.848 451.883 42.448 454.955 40.768C458.027 39.088 461.555 38.248 465.539 38.248C469.427 38.248 472.883 39.064 475.907 40.696C478.931 42.328 481.283 44.656 482.963 47.68C484.691 50.704 485.555 54.232 485.555 58.264ZM472.955 55.024C472.955 52.912 472.235 51.232 470.795 49.984C469.355 48.736 467.555 48.112 465.395 48.112C463.331 48.112 461.579 48.712 460.139 49.912C458.747 51.112 457.883 52.816 457.547 55.024H472.955ZM506.522 67.48L515.234 38.824H528.338L514.082 79H498.89L484.634 38.824H497.81L506.522 67.48ZM567.792 58.264C567.792 59.416 567.72 60.616 567.576 61.864H539.712C539.904 64.36 540.696 66.28 542.088 67.624C543.528 68.92 545.28 69.568 547.344 69.568C550.416 69.568 552.552 68.272 553.752 65.68H566.856C566.184 68.32 564.96 70.696 563.184 72.808C561.456 74.92 559.272 76.576 556.632 77.776C553.992 78.976 551.04 79.576 547.776 79.576C543.84 79.576 540.336 78.736 537.264 77.056C534.192 75.376 531.792 72.976 530.064 69.856C528.336 66.736 527.472 63.088 527.472 58.912C527.472 54.736 528.312 51.088 529.992 47.968C531.72 44.848 534.12 42.448 537.192 40.768C540.264 39.088 543.792 38.248 547.776 38.248C551.664 38.248 555.12 39.064 558.144 40.696C561.168 42.328 563.52 44.656 565.2 47.68C566.928 50.704 567.792 54.232 567.792 58.264ZM555.192 55.024C555.192 52.912 554.472 51.232 553.032 49.984C551.592 48.736 549.792 48.112 547.632 48.112C545.568 48.112 543.816 48.712 542.376 49.912C540.984 51.112 540.12 52.816 539.784 55.024H555.192ZM568.239 58.84C568.239 54.712 569.007 51.088 570.543 47.968C572.127 44.848 574.263 42.448 576.951 40.768C579.639 39.088 582.639 38.248 585.951 38.248C588.783 38.248 591.255 38.824 593.367 39.976C595.527 41.128 597.183 42.64 598.335 44.512V38.824H610.647V79H598.335V73.312C597.135 75.184 595.455 76.696 593.295 77.848C591.183 79 588.711 79.576 585.879 79.576C582.615 79.576 579.639 78.736 576.951 77.056C574.263 75.328 572.127 72.904 570.543 69.784C569.007 66.616 568.239 62.968 568.239 58.84ZM598.335 58.912C598.335 55.84 597.471 53.416 595.743 51.64C594.063 49.864 591.999 48.976 589.551 48.976C587.103 48.976 585.015 49.864 583.287 51.64C581.607 53.368 580.767 55.768 580.767 58.84C580.767 61.912 581.607 64.36 583.287 66.184C585.015 67.96 587.103 68.848 589.551 68.848C591.999 68.848 594.063 67.96 595.743 66.184C597.471 64.408 598.335 61.984 598.335 58.912ZM628.267 25.72V79H615.955V25.72H628.267Z" fill="#FFDD65"/>
<path d="M48.0742 146L41.6062 134.576H38.8342V146H32.9542V116.684H43.9582C46.2262 116.684 48.1582 117.09 49.7542 117.902C51.3502 118.686 52.5402 119.764 53.3242 121.136C54.1362 122.48 54.5422 123.992 54.5422 125.672C54.5422 127.604 53.9822 129.354 52.8622 130.922C51.7422 132.462 50.0762 133.526 47.8642 134.114L54.8782 146H48.0742ZM38.8342 130.166H43.7482C45.3442 130.166 46.5342 129.788 47.3182 129.032C48.1022 128.248 48.4942 127.17 48.4942 125.798C48.4942 124.454 48.1022 123.418 47.3182 122.69C46.5342 121.934 45.3442 121.556 43.7482 121.556H38.8342V130.166ZM78.1305 133.862C78.1305 134.702 78.0745 135.458 77.9625 136.13H60.9525C61.0925 137.81 61.6805 139.126 62.7165 140.078C63.7525 141.03 65.0265 141.506 66.5385 141.506C68.7225 141.506 70.2765 140.568 71.2005 138.692H77.5425C76.8705 140.932 75.5825 142.78 73.6785 144.236C71.7745 145.664 69.4365 146.378 66.6645 146.378C64.4245 146.378 62.4085 145.888 60.6165 144.908C58.8525 143.9 57.4665 142.486 56.4585 140.666C55.4785 138.846 54.9885 136.746 54.9885 134.366C54.9885 131.958 55.4785 129.844 56.4585 128.024C57.4385 126.204 58.8105 124.804 60.5745 123.824C62.3385 122.844 64.3685 122.354 66.6645 122.354C68.8765 122.354 70.8505 122.83 72.5865 123.782C74.3505 124.734 75.7085 126.092 76.6605 127.856C77.6405 129.592 78.1305 131.594 78.1305 133.862ZM72.0405 132.182C72.0125 130.67 71.4665 129.466 70.4025 128.57C69.3385 127.646 68.0365 127.184 66.4965 127.184C65.0405 127.184 63.8085 127.632 62.8005 128.528C61.8205 129.396 61.2185 130.614 60.9945 132.182H72.0405ZM77.5503 134.282C77.5503 131.93 78.0123 129.844 78.9363 128.024C79.8883 126.204 81.1623 124.804 82.7583 123.824C84.3823 122.844 86.1883 122.354 88.1763 122.354C89.9123 122.354 91.4243 122.704 92.7123 123.404C94.0283 124.104 95.0783 124.986 95.8623 126.05V122.732H101.784V146H95.8623V142.598C95.1063 143.69 94.0563 144.6 92.7123 145.328C91.3963 146.028 89.8703 146.378 88.1343 146.378C86.1743 146.378 84.3823 145.874 82.7583 144.866C81.1623 143.858 79.8883 142.444 78.9363 140.624C78.0123 138.776 77.5503 136.662 77.5503 134.282ZM95.8623 134.366C95.8623 132.938 95.5823 131.72 95.0223 130.712C94.4623 129.676 93.7063 128.892 92.7543 128.36C91.8023 127.8 90.7803 127.52 89.6883 127.52C88.5963 127.52 87.5883 127.786 86.6643 128.318C85.7403 128.85 84.9843 129.634 84.3963 130.67C83.8363 131.678 83.5563 132.882 83.5563 134.282C83.5563 135.682 83.8363 136.914 84.3963 137.978C84.9843 139.014 85.7403 139.812 86.6643 140.372C87.6163 140.932 88.6243 141.212 89.6883 141.212C90.7803 141.212 91.8023 140.946 92.7543 140.414C93.7063 139.854 94.4623 139.07 95.0223 138.062C95.5823 137.026 95.8623 135.794 95.8623 134.366ZM113.071 146.378C111.167 146.378 109.459 146.042 107.947 145.37C106.435 144.67 105.231 143.732 104.335 142.556C103.467 141.38 102.991 140.078 102.907 138.65H108.829C108.941 139.546 109.375 140.288 110.131 140.876C110.915 141.464 111.881 141.758 113.029 141.758C114.149 141.758 115.017 141.534 115.633 141.086C116.277 140.638 116.599 140.064 116.599 139.364C116.599 138.608 116.207 138.048 115.423 137.684C114.667 137.292 113.449 136.872 111.769 136.424C110.033 136.004 108.605 135.57 107.485 135.122C106.393 134.674 105.441 133.988 104.629 133.064C103.845 132.14 103.453 130.894 103.453 129.326C103.453 128.038 103.817 126.862 104.545 125.798C105.301 124.734 106.365 123.894 107.737 123.278C109.137 122.662 110.775 122.354 112.651 122.354C115.423 122.354 117.635 123.054 119.287 124.454C120.939 125.826 121.849 127.688 122.017 130.04H116.389C116.305 129.116 115.913 128.388 115.213 127.856C114.541 127.296 113.631 127.016 112.483 127.016C111.419 127.016 110.593 127.212 110.005 127.604C109.445 127.996 109.165 128.542 109.165 129.242C109.165 130.026 109.557 130.628 110.341 131.048C111.125 131.44 112.343 131.846 113.995 132.266C115.675 132.686 117.061 133.12 118.153 133.568C119.245 134.016 120.183 134.716 120.967 135.668C121.779 136.592 122.199 137.824 122.227 139.364C122.227 140.708 121.849 141.912 121.093 142.976C120.365 144.04 119.301 144.88 117.901 145.496C116.529 146.084 114.919 146.378 113.071 146.378ZM134.026 146.378C131.786 146.378 129.77 145.888 127.978 144.908C126.186 143.9 124.772 142.486 123.736 140.666C122.728 138.846 122.224 136.746 122.224 134.366C122.224 131.986 122.742 129.886 123.778 128.066C124.842 126.246 126.284 124.846 128.104 123.866C129.924 122.858 131.954 122.354 134.194 122.354C136.434 122.354 138.464 122.858 140.284 123.866C142.104 124.846 143.532 126.246 144.568 128.066C145.632 129.886 146.164 131.986 146.164 134.366C146.164 136.746 145.618 138.846 144.526 140.666C143.462 142.486 142.006 143.9 140.158 144.908C138.338 145.888 136.294 146.378 134.026 146.378ZM134.026 141.254C135.09 141.254 136.084 141.002 137.008 140.498C137.96 139.966 138.716 139.182 139.276 138.146C139.836 137.11 140.116 135.85 140.116 134.366C140.116 132.154 139.528 130.46 138.352 129.284C137.204 128.08 135.79 127.478 134.11 127.478C132.43 127.478 131.016 128.08 129.868 129.284C128.748 130.46 128.188 132.154 128.188 134.366C128.188 136.578 128.734 138.286 129.826 139.49C130.946 140.666 132.346 141.254 134.026 141.254ZM160.011 122.396C162.783 122.396 165.023 123.278 166.731 125.042C168.439 126.778 169.293 129.214 169.293 132.35V146H163.413V133.148C163.413 131.3 162.951 129.886 162.027 128.906C161.103 127.898 159.843 127.394 158.247 127.394C156.623 127.394 155.335 127.898 154.383 128.906C153.459 129.886 152.997 131.3 152.997 133.148V146H147.117V122.732H152.997V125.63C153.781 124.622 154.775 123.838 155.979 123.278C157.211 122.69 158.555 122.396 160.011 122.396ZM203.487 116.684V146H197.607V126.932L189.753 146H185.301L177.405 126.932V146H171.525V116.684H178.203L187.527 138.482L196.851 116.684H203.487ZM211.82 141.338H221.48V146H205.94V116.684H211.82V141.338ZM234.385 126.134C235.141 125.014 236.177 124.104 237.493 123.404C238.837 122.704 240.363 122.354 242.071 122.354C244.059 122.354 245.851 122.844 247.447 123.824C249.071 124.804 250.345 126.204 251.269 128.024C252.221 129.816 252.697 131.902 252.697 134.282C252.697 136.662 252.221 138.776 251.269 140.624C250.345 142.444 249.071 143.858 247.447 144.866C245.851 145.874 244.059 146.378 242.071 146.378C240.335 146.378 238.809 146.042 237.493 145.37C236.205 144.67 235.169 143.774 234.385 142.682V146H228.505V114.92H234.385V126.134ZM246.691 134.282C246.691 132.882 246.397 131.678 245.809 130.67C245.249 129.634 244.493 128.85 243.541 128.318C242.617 127.786 241.609 127.52 240.517 127.52C239.453 127.52 238.445 127.8 237.493 128.36C236.569 128.892 235.813 129.676 235.225 130.712C234.665 131.748 234.385 132.966 234.385 134.366C234.385 135.766 234.665 136.984 235.225 138.02C235.813 139.056 236.569 139.854 237.493 140.414C238.445 140.946 239.453 141.212 240.517 141.212C241.609 141.212 242.617 140.932 243.541 140.372C244.493 139.812 245.249 139.014 245.809 137.978C246.397 136.942 246.691 135.71 246.691 134.282ZM256.592 119.96C255.556 119.96 254.688 119.638 253.988 118.994C253.316 118.322 252.98 117.496 252.98 116.516C252.98 115.536 253.316 114.724 253.988 114.08C254.688 113.408 255.556 113.072 256.592 113.072C257.628 113.072 258.482 113.408 259.154 114.08C259.854 114.724 260.204 115.536 260.204 116.516C260.204 117.496 259.854 118.322 259.154 118.994C258.482 119.638 257.628 119.96 256.592 119.96ZM259.49 122.732V146H253.61V122.732H259.49ZM274.834 122.396C277.606 122.396 279.846 123.278 281.554 125.042C283.262 126.778 284.116 129.214 284.116 132.35V146H278.236V133.148C278.236 131.3 277.774 129.886 276.85 128.906C275.926 127.898 274.666 127.394 273.07 127.394C271.446 127.394 270.158 127.898 269.206 128.906C268.282 129.886 267.82 131.3 267.82 133.148V146H261.94V122.732H267.82V125.63C268.604 124.622 269.598 123.838 270.802 123.278C272.034 122.69 273.378 122.396 274.834 122.396ZM284.835 134.282C284.835 131.93 285.297 129.844 286.221 128.024C287.173 126.204 288.461 124.804 290.085 123.824C291.709 122.844 293.515 122.354 295.503 122.354C297.015 122.354 298.457 122.69 299.829 123.362C301.201 124.006 302.293 124.874 303.105 125.966V114.92H309.069V146H303.105V142.556C302.377 143.704 301.355 144.628 300.039 145.328C298.723 146.028 297.197 146.378 295.461 146.378C293.501 146.378 291.709 145.874 290.085 144.866C288.461 143.858 287.173 142.444 286.221 140.624C285.297 138.776 284.835 136.662 284.835 134.282ZM303.147 134.366C303.147 132.938 302.867 131.72 302.307 130.712C301.747 129.676 300.991 128.892 300.039 128.36C299.087 127.8 298.065 127.52 296.973 127.52C295.881 127.52 294.873 127.786 293.949 128.318C293.025 128.85 292.269 129.634 291.681 130.67C291.121 131.678 290.841 132.882 290.841 134.282C290.841 135.682 291.121 136.914 291.681 137.978C292.269 139.014 293.025 139.812 293.949 140.372C294.901 140.932 295.909 141.212 296.973 141.212C298.065 141.212 299.087 140.946 300.039 140.414C300.991 139.854 301.747 139.07 302.307 138.062C302.867 137.026 303.147 135.794 303.147 134.366ZM314.434 119.96C313.398 119.96 312.53 119.638 311.83 118.994C311.158 118.322 310.822 117.496 310.822 116.516C310.822 115.536 311.158 114.724 311.83 114.08C312.53 113.408 313.398 113.072 314.434 113.072C315.47 113.072 316.324 113.408 316.996 114.08C317.696 114.724 318.046 115.536 318.046 116.516C318.046 117.496 317.696 118.322 316.996 118.994C316.324 119.638 315.47 119.96 314.434 119.96ZM317.332 122.732V146H311.452V122.732H317.332ZM332.675 122.396C335.447 122.396 337.687 123.278 339.395 125.042C341.103 126.778 341.957 129.214 341.957 132.35V146H336.077V133.148C336.077 131.3 335.615 129.886 334.691 128.906C333.767 127.898 332.507 127.394 330.911 127.394C329.287 127.394 327.999 127.898 327.047 128.906C326.123 129.886 325.661 131.3 325.661 133.148V146H319.781V122.732H325.661V125.63C326.445 124.622 327.439 123.838 328.643 123.278C329.875 122.69 331.219 122.396 332.675 122.396ZM353.303 122.354C355.039 122.354 356.565 122.704 357.881 123.404C359.197 124.076 360.233 124.958 360.989 126.05V122.732H366.911V146.168C366.911 148.324 366.477 150.242 365.609 151.922C364.741 153.63 363.439 154.974 361.703 155.954C359.967 156.962 357.867 157.466 355.403 157.466C352.099 157.466 349.383 156.696 347.255 155.156C345.155 153.616 343.965 151.516 343.685 148.856H349.523C349.831 149.92 350.489 150.76 351.497 151.376C352.533 152.02 353.779 152.342 355.235 152.342C356.943 152.342 358.329 151.824 359.393 150.788C360.457 149.78 360.989 148.24 360.989 146.168V142.556C360.233 143.648 359.183 144.558 357.839 145.286C356.523 146.014 355.011 146.378 353.303 146.378C351.343 146.378 349.551 145.874 347.927 144.866C346.303 143.858 345.015 142.444 344.063 140.624C343.139 138.776 342.677 136.662 342.677 134.282C342.677 131.93 343.139 129.844 344.063 128.024C345.015 126.204 346.289 124.804 347.885 123.824C349.509 122.844 351.315 122.354 353.303 122.354ZM360.989 134.366C360.989 132.938 360.709 131.72 360.149 130.712C359.589 129.676 358.833 128.892 357.881 128.36C356.929 127.8 355.907 127.52 354.815 127.52C353.723 127.52 352.715 127.786 351.791 128.318C350.867 128.85 350.111 129.634 349.523 130.67C348.963 131.678 348.683 132.882 348.683 134.282C348.683 135.682 348.963 136.914 349.523 137.978C350.111 139.014 350.867 139.812 351.791 140.372C352.743 140.932 353.751 141.212 354.815 141.212C355.907 141.212 356.929 140.946 357.881 140.414C358.833 139.854 359.589 139.07 360.149 138.062C360.709 137.026 360.989 135.794 360.989 134.366ZM378.198 146.378C376.294 146.378 374.586 146.042 373.074 145.37C371.562 144.67 370.358 143.732 369.462 142.556C368.594 141.38 368.118 140.078 368.034 138.65H373.956C374.068 139.546 374.502 140.288 375.258 140.876C376.042 141.464 377.008 141.758 378.156 141.758C379.276 141.758 380.144 141.534 380.76 141.086C381.404 140.638 381.726 140.064 381.726 139.364C381.726 138.608 381.334 138.048 380.55 137.684C379.794 137.292 378.576 136.872 376.896 136.424C375.16 136.004 373.732 135.57 372.612 135.122C371.52 134.674 370.568 133.988 369.756 133.064C368.972 132.14 368.58 130.894 368.58 129.326C368.58 128.038 368.944 126.862 369.672 125.798C370.428 124.734 371.492 123.894 372.864 123.278C374.264 122.662 375.902 122.354 377.778 122.354C380.55 122.354 382.762 123.054 384.414 124.454C386.066 125.826 386.976 127.688 387.144 130.04H381.516C381.432 129.116 381.04 128.388 380.34 127.856C379.668 127.296 378.758 127.016 377.61 127.016C376.546 127.016 375.72 127.212 375.132 127.604C374.572 127.996 374.292 128.542 374.292 129.242C374.292 130.026 374.684 130.628 375.468 131.048C376.252 131.44 377.47 131.846 379.122 132.266C380.802 132.686 382.188 133.12 383.28 133.568C384.372 134.016 385.31 134.716 386.094 135.668C386.906 136.592 387.326 137.824 387.354 139.364C387.354 140.708 386.976 141.912 386.22 142.976C385.492 144.04 384.428 144.88 383.028 145.496C381.656 146.084 380.046 146.378 378.198 146.378ZM406.136 127.562H402.062V146H396.098V127.562H393.452V122.732H396.098V121.556C396.098 118.7 396.91 116.6 398.534 115.256C400.158 113.912 402.608 113.282 405.884 113.366V118.322C404.456 118.294 403.462 118.532 402.902 119.036C402.342 119.54 402.062 120.45 402.062 121.766V122.732H406.136V127.562ZM416.919 146.378C414.679 146.378 412.663 145.888 410.871 144.908C409.079 143.9 407.665 142.486 406.629 140.666C405.621 138.846 405.117 136.746 405.117 134.366C405.117 131.986 405.635 129.886 406.671 128.066C407.735 126.246 409.177 124.846 410.997 123.866C412.817 122.858 414.847 122.354 417.087 122.354C419.327 122.354 421.357 122.858 423.177 123.866C424.997 124.846 426.425 126.246 427.461 128.066C428.525 129.886 429.057 131.986 429.057 134.366C429.057 136.746 428.511 138.846 427.419 140.666C426.355 142.486 424.899 143.9 423.051 144.908C421.231 145.888 419.187 146.378 416.919 146.378ZM416.919 141.254C417.983 141.254 418.977 141.002 419.901 140.498C420.853 139.966 421.609 139.182 422.169 138.146C422.729 137.11 423.009 135.85 423.009 134.366C423.009 132.154 422.421 130.46 421.245 129.284C420.097 128.08 418.683 127.478 417.003 127.478C415.323 127.478 413.909 128.08 412.761 129.284C411.641 130.46 411.081 132.154 411.081 134.366C411.081 136.578 411.627 138.286 412.719 139.49C413.839 140.666 415.239 141.254 416.919 141.254ZM435.89 126.344C436.646 125.112 437.626 124.146 438.83 123.446C440.062 122.746 441.462 122.396 443.03 122.396V128.57H441.476C439.628 128.57 438.228 129.004 437.276 129.872C436.352 130.74 435.89 132.252 435.89 134.408V146H430.01V122.732H435.89V126.344ZM456.158 126.344C456.914 125.112 457.894 124.146 459.098 123.446C460.33 122.746 461.73 122.396 463.298 122.396V128.57H461.744C459.896 128.57 458.496 129.004 457.544 129.872C456.62 130.74 456.158 132.252 456.158 134.408V146H450.278V122.732H456.158V126.344ZM485.529 133.862C485.529 134.702 485.473 135.458 485.361 136.13H468.351C468.491 137.81 469.079 139.126 470.115 140.078C471.151 141.03 472.425 141.506 473.937 141.506C476.121 141.506 477.675 140.568 478.599 138.692H484.941C484.269 140.932 482.981 142.78 481.077 144.236C479.173 145.664 476.835 146.378 474.063 146.378C471.823 146.378 469.807 145.888 468.015 144.908C466.251 143.9 464.865 142.486 463.857 140.666C462.877 138.846 462.387 136.746 462.387 134.366C462.387 131.958 462.877 129.844 463.857 128.024C464.837 126.204 466.209 124.804 467.973 123.824C469.737 122.844 471.767 122.354 474.063 122.354C476.275 122.354 478.249 122.83 479.985 123.782C481.749 124.734 483.107 126.092 484.059 127.856C485.039 129.592 485.529 131.594 485.529 133.862ZM479.439 132.182C479.411 130.67 478.865 129.466 477.801 128.57C476.737 127.646 475.435 127.184 473.895 127.184C472.439 127.184 471.207 127.632 470.199 128.528C469.219 129.396 468.617 130.614 468.393 132.182H479.439ZM484.949 134.282C484.949 131.93 485.411 129.844 486.335 128.024C487.287 126.204 488.561 124.804 490.157 123.824C491.781 122.844 493.587 122.354 495.575 122.354C497.311 122.354 498.823 122.704 500.111 123.404C501.427 124.104 502.477 124.986 503.261 126.05V122.732H509.183V146H503.261V142.598C502.505 143.69 501.455 144.6 500.111 145.328C498.795 146.028 497.269 146.378 495.533 146.378C493.573 146.378 491.781 145.874 490.157 144.866C488.561 143.858 487.287 142.444 486.335 140.624C485.411 138.776 484.949 136.662 484.949 134.282ZM503.261 134.366C503.261 132.938 502.981 131.72 502.421 130.712C501.861 129.676 501.105 128.892 500.153 128.36C499.201 127.8 498.179 127.52 497.087 127.52C495.995 127.52 494.987 127.786 494.063 128.318C493.139 128.85 492.383 129.634 491.795 130.67C491.235 131.678 490.955 132.882 490.955 134.282C490.955 135.682 491.235 136.914 491.795 137.978C492.383 139.014 493.139 139.812 494.063 140.372C495.015 140.932 496.023 141.212 497.087 141.212C498.179 141.212 499.201 140.946 500.153 140.414C501.105 139.854 501.861 139.07 502.421 138.062C502.981 137.026 503.261 135.794 503.261 134.366ZM510.054 134.366C510.054 131.958 510.544 129.858 511.524 128.066C512.504 126.246 513.862 124.846 515.598 123.866C517.334 122.858 519.322 122.354 521.562 122.354C524.446 122.354 526.826 123.082 528.702 124.538C530.606 125.966 531.88 127.982 532.524 130.586H526.182C525.846 129.578 525.272 128.794 524.46 128.234C523.676 127.646 522.696 127.352 521.52 127.352C519.84 127.352 518.51 127.968 517.53 129.2C516.55 130.404 516.06 132.126 516.06 134.366C516.06 136.578 516.55 138.3 517.53 139.532C518.51 140.736 519.84 141.338 521.52 141.338C523.9 141.338 525.454 140.274 526.182 138.146H532.524C531.88 140.666 530.606 142.668 528.702 144.152C526.798 145.636 524.418 146.378 521.562 146.378C519.322 146.378 517.334 145.888 515.598 144.908C513.862 143.9 512.504 142.5 511.524 140.708C510.544 138.888 510.054 136.774 510.054 134.366ZM540.317 127.562V138.818C540.317 139.602 540.499 140.176 540.863 140.54C541.255 140.876 541.899 141.044 542.795 141.044H545.525V146H541.829C536.873 146 534.395 143.592 534.395 138.776V127.562H531.623V122.732H534.395V116.978H540.317V122.732H545.525V127.562H540.317ZM564.286 128.528V133.484H546.478V128.528H564.286ZM573.401 126.344C574.157 125.112 575.137 124.146 576.341 123.446C577.573 122.746 578.973 122.396 580.541 122.396V128.57H578.987C577.139 128.57 575.739 129.004 574.787 129.872C573.863 130.74 573.401 132.252 573.401 134.408V146H567.521V122.732H573.401V126.344ZM602.771 133.862C602.771 134.702 602.715 135.458 602.603 136.13H585.593C585.733 137.81 586.321 139.126 587.357 140.078C588.393 141.03 589.667 141.506 591.179 141.506C593.363 141.506 594.917 140.568 595.841 138.692H602.183C601.511 140.932 600.223 142.78 598.319 144.236C596.415 145.664 594.077 146.378 591.305 146.378C589.065 146.378 587.049 145.888 585.257 144.908C583.493 143.9 582.107 142.486 581.099 140.666C580.119 138.846 579.629 136.746 579.629 134.366C579.629 131.958 580.119 129.844 581.099 128.024C582.079 126.204 583.451 124.804 585.215 123.824C586.979 122.844 589.009 122.354 591.305 122.354C593.517 122.354 595.491 122.83 597.227 123.782C598.991 124.734 600.349 126.092 601.301 127.856C602.281 129.592 602.771 131.594 602.771 133.862ZM596.681 132.182C596.653 130.67 596.107 129.466 595.043 128.57C593.979 127.646 592.677 127.184 591.137 127.184C589.681 127.184 588.449 127.632 587.441 128.528C586.461 129.396 585.859 130.614 585.635 132.182H596.681ZM613.405 140.582L619.285 122.732H625.543L616.933 146H609.793L601.225 122.732H607.525L613.405 140.582ZM647.116 133.862C647.116 134.702 647.06 135.458 646.948 136.13H629.938C630.078 137.81 630.666 139.126 631.702 140.078C632.738 141.03 634.012 141.506 635.524 141.506C637.708 141.506 639.262 140.568 640.186 138.692H646.528C645.856 140.932 644.568 142.78 642.664 144.236C640.76 145.664 638.422 146.378 635.65 146.378C633.41 146.378 631.394 145.888 629.602 144.908C627.838 143.9 626.452 142.486 625.444 140.666C624.464 138.846 623.974 136.746 623.974 134.366C623.974 131.958 624.464 129.844 625.444 128.024C626.424 126.204 627.796 124.804 629.56 123.824C631.324 122.844 633.354 122.354 635.65 122.354C637.862 122.354 639.836 122.83 641.572 123.782C643.336 124.734 644.694 126.092 645.646 127.856C646.626 129.592 647.116 131.594 647.116 133.862ZM641.026 132.182C640.998 130.67 640.452 129.466 639.388 128.57C638.324 127.646 637.022 127.184 635.482 127.184C634.026 127.184 632.794 127.632 631.786 128.528C630.806 129.396 630.204 130.614 629.98 132.182H641.026ZM646.535 134.282C646.535 131.93 646.997 129.844 647.921 128.024C648.873 126.204 650.147 124.804 651.743 123.824C653.367 122.844 655.173 122.354 657.161 122.354C658.897 122.354 660.409 122.704 661.697 123.404C663.013 124.104 664.063 124.986 664.847 126.05V122.732H670.769V146H664.847V142.598C664.091 143.69 663.041 144.6 661.697 145.328C660.381 146.028 658.855 146.378 657.119 146.378C655.159 146.378 653.367 145.874 651.743 144.866C650.147 143.858 648.873 142.444 647.921 140.624C646.997 138.776 646.535 136.662 646.535 134.282ZM664.847 134.366C664.847 132.938 664.567 131.72 664.007 130.712C663.447 129.676 662.691 128.892 661.739 128.36C660.787 127.8 659.765 127.52 658.673 127.52C657.581 127.52 656.573 127.786 655.649 128.318C654.725 128.85 653.969 129.634 653.381 130.67C652.821 131.678 652.541 132.882 652.541 134.282C652.541 135.682 652.821 136.914 653.381 137.978C653.969 139.014 654.725 139.812 655.649 140.372C656.601 140.932 657.609 141.212 658.673 141.212C659.765 141.212 660.787 140.946 661.739 140.414C662.691 139.854 663.447 139.07 664.007 138.062C664.567 137.026 664.847 135.794 664.847 134.366ZM679.032 114.92V146H673.152V114.92H679.032Z" fill="#01071A"/>
</svg>
